<svg xmlns="http://www.w3.org/2000/svg" viewBox="0 0 24 24" fill="none" stroke="currentColor" stroke-width="2" stroke-linecap="round" stroke-linejoin="round" class="feather feather-cricket">
  <path d="M5.5 6.5c0-1.4 1.1-2.5 2.5-2.5s2.5 1.1 2.5 2.5c0 1.3-1.1 2.4-2.5 2.4S5.5 7.8 5.5 6.5zM18.5 6.5c0-1.4-1.1-2.5-2.5-2.5s-2.5 1.1-2.5 2.5c0 1.3 1.1 2.4 2.5 2.4S18.5 7.8 18.5 6.5zM12 23c-1.9 0-3.5-1.6-3.5-3.5s1.6-6.5 3.5-6.5s3.5 4.6 3.5 6.5S13.9 23 12 23zM12 17.5c-0.9 0-1.5 0.6-1.5 1.5s0.6 3 1.5 3s1.5-1.3 1.5-3S12.9 17.5 12 17.5zM12 2C6.8 2 3 5.8 3 11c0 1.7 0.8 3.5 2 4.8c0.8 0.8 1.6 1.4 2 1.7c0.4-0.3 1.2-0.9 2-1.7c1.2-1.3 2-3.1 2-4.8C21 5.8 17.2 2 12 2z"/>
</svg>
